<svg xmlns="http://www.w3.org/2000/svg" width="398" height="144" fill="none">
    <path
      fill="#000"
      d="M148.608 96V50.88h9.984v18.112h20.672V50.88h10.048V96h-10.048V77.248h-20.672V96h-9.984zm65.555.704c-5.632 0-10.027-1.515-13.184-4.544-3.157-3.03-4.736-7.147-4.736-12.352 0-3.37.661-6.315 1.984-8.832 1.365-2.517 3.243-4.48 5.632-5.888 2.432-1.45 5.269-2.176 8.512-2.176 3.2 0 5.867.683 8 2.048 2.176 1.365 3.797 3.285 4.864 5.76 1.109 2.432 1.664 5.27 1.664 8.512v2.24h-22.72v-4.8h15.68l-1.088.896c0-2.688-.555-4.715-1.664-6.08-1.067-1.408-2.624-2.112-4.672-2.112-2.261 0-4.011.832-5.248 2.496-1.195 1.664-1.792 4.053-1.792 7.168v1.024c0 3.157.768 5.504 2.304 7.04 1.579 1.536 3.84 2.304 6.784 2.304 1.749 0 3.392-.213 4.928-.64a15.546 15.546 0 0 0 4.48-2.176l2.688 6.4c-1.621 1.195-3.499 2.112-5.632 2.752-2.091.64-4.352.96-6.784.96zm17.985 13.824-2.24-7.552c2.005-.384 3.691-.832 5.056-1.344 1.408-.512 2.56-1.195 3.456-2.048.896-.81 1.621-1.877 2.176-3.2l1.6-3.776-.256 3.712-14.08-32.768h10.176l9.28 23.488h-1.984l9.408-23.488h9.6L249.684 97.28c-1.067 2.432-2.219 4.437-3.456 6.016-1.195 1.621-2.496 2.901-3.904 3.84a17.342 17.342 0 0 1-4.672 2.176c-1.664.512-3.499.917-5.504 1.216zm58.484-13.824c-5.163 0-9.515-.939-13.056-2.816-3.499-1.92-6.144-4.608-7.936-8.064-1.792-3.499-2.688-7.573-2.688-12.224 0-4.779.96-8.917 2.88-12.416 1.962-3.499 4.778-6.208 8.448-8.128 3.669-1.92 8.064-2.88 13.184-2.88 3.285 0 6.165.427 8.64 1.28 2.517.81 4.714 1.984 6.592 3.52l-3.2 7.744c-1.366-.981-2.646-1.75-3.84-2.304a13.067 13.067 0 0 0-3.712-1.216c-1.28-.256-2.752-.384-4.416-.384-4.694 0-8.235 1.28-10.624 3.84-2.347 2.517-3.52 6.187-3.52 11.008 0 4.779 1.109 8.405 3.328 10.88 2.218 2.475 5.696 3.712 10.432 3.712 1.578 0 3.2-.15 4.863-.448a29.115 29.115 0 0 0 4.929-1.344l-1.792 3.84v-12.16h-9.92V71.04H307.4v22.144c-2.262 1.11-4.886 1.984-7.872 2.624-2.944.597-5.91.896-8.896.896zm41.031 0c-5.632 0-10.027-1.515-13.184-4.544-3.157-3.03-4.736-7.147-4.736-12.352 0-3.37.661-6.315 1.984-8.832 1.365-2.517 3.243-4.48 5.632-5.888 2.432-1.45 5.269-2.176 8.512-2.176 3.2 0 5.867.683 8 2.048 2.176 1.365 3.797 3.285 4.864 5.76 1.109 2.432 1.664 5.27 1.664 8.512v2.24h-22.72v-4.8h15.68l-1.088.896c0-2.688-.555-4.715-1.664-6.08-1.067-1.408-2.624-2.112-4.672-2.112-2.261 0-4.011.832-5.248 2.496-1.195 1.664-1.792 4.053-1.792 7.168v1.024c0 3.157.768 5.504 2.304 7.04 1.579 1.536 3.84 2.304 6.784 2.304 1.749 0 3.392-.213 4.928-.64a15.546 15.546 0 0 0 4.48-2.176l2.688 6.4c-1.621 1.195-3.499 2.112-5.632 2.752-2.091.64-4.352.96-6.784.96zM350.531 96V72a69.04 69.04 0 0 0-.128-4.16 70.642 70.642 0 0 0-.384-4.288h9.28l.704 6.016h-.768c1.066-2.133 2.581-3.776 4.544-4.928 1.962-1.152 4.245-1.728 6.848-1.728 3.797 0 6.634 1.11 8.512 3.328 1.92 2.176 2.88 5.568 2.88 10.176V96h-9.664V76.864c0-2.347-.427-4.01-1.28-4.992-.854-.981-2.134-1.472-3.84-1.472-2.134 0-3.84.683-5.12 2.048-1.28 1.323-1.92 3.115-1.92 5.376V96h-9.664z"
    />
    <path
      fill="url(#a)"
      d="M121.916 72.135c0-.937-.046-1.833-.121-2.733a34.408 34.408 0 0 0-2.682-10.922 13.306 13.306 0 0 1-5.531 15.61 8.37 8.37 0 0 1-.726.417l-10.224 5.84-15.305 26.569a34.75 34.75 0 0 0 34.589-34.78z"
    />
    <path
      fill="url(#b)"
      d="m102.571 63.928-15.36-26.517-.136-.23a34.754 34.754 0 0 0-47.546-12.46c-.797.47-1.556.966-2.301 1.482a34.575 34.575 0 0 0-8.082 7.823 13.307 13.307 0 0 1 16.27-3.093c.25.131.495.272.732.422l10.537 6.093 4.252 2.452 37.27 21.516c2.813 1.636 4.88 3.562 6.146 5.625l-1.782-3.113z"
    />
    <path
      fill="url(#c)"
      d="M119.114 58.48a39.312 39.312 0 0 0-1.407-2.948A34.753 34.753 0 0 0 87.239 37.41l15.36 26.517 1.8 3.108.132.22c.033.061.065.122.103.183.264.472.493.962.684 1.468a9.121 9.121 0 0 1-.089 6.773c-.193.465-.418.916-.675 1.35l-.333.61-1.561 2.709 10.224-5.841c.244-.131.492-.267.726-.417a13.312 13.312 0 0 0 5.532-15.61h-.028z"
    />
    <path
      fill="#0076D0"
      d="m104.169 66.688-1.598-2.76-15.36-26.518H53.497l.398.028c.915.098 1.82.282 2.7.549a20.5 20.5 0 0 1 4.34 1.903l37.27 21.516c2.813 1.635 4.881 3.562 6.146 5.625l-.183-.343z"
    />
    <path
      fill="url(#d)"
      d="m56.685 37.44-10.537-6.094a10.59 10.59 0 0 0-.731-.422 13.308 13.308 0 0 0-16.27 3.103 33.82 33.82 0 0 0-1.824 2.723 34.743 34.743 0 0 0-.253 35.522l15.258 26.096.993 1.701a18.04 18.04 0 0 1-.984-5.273V50.658a21.79 21.79 0 0 1 .131-2.465 15.68 15.68 0 0 1 1.528-5.424c1.946-3.848 5.503-5.775 9.9-5.33.916.098 1.82.282 2.7.549a20.702 20.702 0 0 1 4.34 1.903l-4.25-2.452z"
    />
    <path
      fill="url(#e)"
      d="M44.053 117.797a13.323 13.323 0 0 1-1.758-6.127v-.844l.028-12.459-15.253-26.1-.094.164a34.751 34.751 0 0 0 12.867 47.438 29.35 29.35 0 0 0 2.433 1.256 34.463 34.463 0 0 0 10.781 3.112 13.291 13.291 0 0 1-9.004-6.44z"
    />
    <path
      fill="#0076D0"
      d="M42.468 48.192a15.71 15.71 0 0 1 1.49-5.344L27.085 72.267l-.127.216 15.37 25.884.999 1.701a18.038 18.038 0 0 1-.989-5.273V50.658c0-.824.043-1.647.131-2.466z"
    />
    <path
      fill="url(#f)"
      d="M99.464 82.158a23.69 23.69 0 0 1-1.247.778l-37.27 21.515a21.047 21.047 0 0 1-3.136 1.5 14.978 14.978 0 0 1-4.448.999c-4.688.276-8.55-2.138-10.041-6.881-.94-2.99-.994-5.1-.994-5.1l-.028 15.857v.844a13.308 13.308 0 0 0 10.781 12.567 34.748 34.748 0 0 0 34.219-17.24l.047-.08 15.305-26.569 1.936-3.36-.043.041a15.796 15.796 0 0 1-5.08 5.129z"
    />
    <path
      fill="#0076D0"
      d="M99.468 82.153a25.18 25.18 0 0 1-1.247.778l-37.27 21.516a21.597 21.597 0 0 1-3.14 1.5 15.17 15.17 0 0 1-4.121.966h33.675l16.875-29.325.309-.567a15.805 15.805 0 0 1-5.081 5.132z"
    />
    <defs>
      <linearGradient
        id="a"
        x1="59.5"
        x2="125.749"
        y1="109.5"
        y2="67"
        gradientUnits="userSpaceOnUse"
      >
        <stop stop-color="#1859BF" />
        <stop offset="1" stop-color="#2FCCF7" />
      </linearGradient>
      <linearGradient
        id="b"
        x1="105.44"
        x2="38.437"
        y1="65.451"
        y2="20.255"
        gradientUnits="userSpaceOnUse"
      >
        <stop stop-color="#1859BF" />
        <stop offset="1" stop-color="#2FCCF7" />
      </linearGradient>
      <linearGradient
        id="c"
        x1="116.803"
        x2="74.512"
        y1="71.394"
        y2="38.062"
        gradientUnits="userSpaceOnUse"
      >
        <stop stop-color="#8E5AE9" />
        <stop offset="1" stop-color="#D2CEFE" />
      </linearGradient>
      <linearGradient
        id="d"
        x1="23.338"
        x2="55.326"
        y1="87.582"
        y2="36.389"
        gradientUnits="userSpaceOnUse"
      >
        <stop stop-color="#D2CEFE" />
        <stop offset="1" stop-color="#8E5AE9" />
      </linearGradient>
      <linearGradient
        id="e"
        x1="39.5"
        x2="43.25"
        y1="45.75"
        y2="129.499"
        gradientUnits="userSpaceOnUse"
      >
        <stop stop-color="#1859BF" />
        <stop offset="1" stop-color="#2FCCF7" />
      </linearGradient>
      <linearGradient
        id="f"
        x1="104.391"
        x2="42.295"
        y1="101.564"
        y2="99.394"
        gradientUnits="userSpaceOnUse"
      >
        <stop stop-color="#D2CEFE" />
        <stop offset="1" stop-color="#8E5AE9" />
      </linearGradient>
    </defs>
  </svg>